<?xml version="1.0" standalone="no"?>
<!DOCTYPE svg PUBLIC "-//W3C//DTD SVG 20010904//EN"
 "http://www.w3.org/TR/2001/REC-SVG-20010904/DTD/svg10.dtd">
<svg version="1.0" xmlns="http://www.w3.org/2000/svg"
 width="842.000000pt" height="188.000000pt" viewBox="0 0 842.000000 188.000000"
 preserveAspectRatio="xMidYMid meet">

<g transform="translate(0.000000,188.000000) scale(0.100000,-0.100000)"
fill="#000000" stroke="none">
<path d="M653 1684 c-29 -14 -53 -29 -53 -32 0 -4 -12 -21 -27 -37 l-28 -30
-3 -597 -2 -598 -25 0 -25 0 -2 293 -3 292 -23 3 c-59 9 -142 -49 -175 -121
-15 -35 -17 -76 -17 -363 l0 -324 650 0 650 0 0 326 c0 288 -2 330 -17 362
-26 55 -76 100 -126 114 -81 21 -77 36 -77 -292 0 -283 0 -290 -20 -290 -20 0
-20 7 -20 580 0 442 -3 586 -12 607 -32 69 -127 133 -200 133 l-28 0 0 -230 0
-230 -150 0 -150 0 0 230 0 230 -32 0 c-18 -1 -57 -12 -85 -26z m422 -984 c0
-269 -2 -310 -15 -310 -13 0 -15 37 -12 287 2 224 0 288 -10 295 -7 4 -61 8
-120 8 l-108 0 0 -295 c0 -288 0 -295 -20 -295 -20 0 -20 7 -20 310 l0 310
153 0 152 0 0 -310z"/>
<path d="M6160 940 l0 -280 55 0 55 0 0 118 c0 98 3 122 20 149 33 55 129 54
150 -2 6 -15 10 -80 10 -146 l0 -119 61 0 62 0 -5 149 c-6 174 -16 202 -88
239 -55 29 -137 25 -182 -8 l-28 -21 0 101 0 100 -55 0 -55 0 0 -280z"/>
<path d="M7890 940 l0 -280 50 0 c43 0 50 3 50 20 0 25 8 25 32 3 13 -12 41
-19 87 -21 133 -8 211 67 211 203 0 125 -97 216 -217 202 -25 -3 -58 -14 -74
-26 l-29 -22 0 101 0 100 -55 0 -55 0 0 -280z m269 14 c37 -26 54 -77 41 -124
-19 -70 -85 -99 -149 -65 -58 30 -68 138 -16 182 31 28 90 30 124 7z"/>
<path d="M1960 920 l0 -260 205 0 205 0 0 50 0 50 -145 0 -145 0 0 60 0 60
125 0 125 0 0 45 0 44 -122 3 -123 3 -3 58 -3 57 141 0 140 0 0 45 0 45 -200
0 -200 0 0 -260z"/>
<path d="M4850 1135 l0 -45 85 0 85 0 0 -215 0 -215 60 0 60 0 2 213 3 212 83
3 82 3 0 44 0 45 -230 0 -230 0 0 -45z"/>
<path d="M6830 920 l0 -260 60 0 59 0 3 108 3 107 118 3 117 3 0 -111 0 -110
60 0 60 0 0 260 0 260 -60 0 -60 0 0 -100 0 -100 -120 0 -120 0 0 100 0 100
-60 0 -60 0 0 -260z"/>
<path d="M3238 1103 c-3 -44 -5 -48 -30 -51 -25 -3 -28 -7 -28 -42 0 -35 3
-39 28 -42 l27 -3 5 -115 c3 -65 11 -125 18 -137 20 -36 64 -53 134 -53 84 0
93 7 78 57 -12 38 -14 40 -53 39 -56 -1 -68 23 -65 129 l3 80 48 3 47 3 0 39
0 39 -47 3 -48 3 -3 48 -3 47 -54 0 -54 0 -3 -47z"/>
<path d="M2482 1052 c-29 -11 -55 -22 -59 -25 -3 -4 2 -25 12 -46 l18 -40 31
16 c45 24 128 23 155 -1 12 -11 21 -27 21 -36 0 -15 -14 -19 -87 -25 -94 -8
-133 -22 -157 -57 -34 -48 -11 -135 44 -163 45 -23 151 -20 184 6 l26 20 0
-20 c0 -19 6 -21 56 -21 l55 0 -3 154 c-3 171 -10 190 -77 230 -48 28 -152 31
-219 8z m185 -238 c9 -24 -30 -68 -70 -78 -67 -17 -116 42 -65 78 31 22 126
22 135 0z"/>
<path d="M2927 1058 c-21 -6 -51 -23 -67 -40 -24 -24 -30 -38 -30 -74 0 -82
21 -99 144 -124 50 -10 83 -22 90 -33 27 -42 -67 -60 -155 -29 l-57 20 -18
-40 c-15 -34 -16 -41 -3 -49 55 -35 218 -40 279 -9 67 34 90 112 50 163 -23
29 -82 53 -152 62 -26 3 -55 13 -63 22 -43 42 70 72 149 39 l34 -14 18 40 c21
47 17 51 -59 68 -57 12 -109 11 -160 -2z"/>
<path d="M3615 1059 c-88 -33 -135 -102 -135 -199 0 -67 14 -102 57 -141 48
-45 86 -59 163 -59 70 0 116 13 155 43 20 16 20 16 -11 47 -31 31 -32 32 -62
16 -64 -33 -156 -13 -180 38 l-12 26 155 0 155 0 0 38 c0 63 -41 136 -94 167
-52 31 -142 42 -191 24z m137 -99 c14 -11 28 -29 31 -40 5 -19 1 -20 -94 -20
-64 0 -99 4 -99 11 0 6 13 24 29 40 36 36 95 40 133 9z"/>
<path d="M4124 1059 c-17 -5 -37 -16 -44 -24 -17 -21 -30 -19 -30 5 0 17 -7
20 -50 20 l-50 0 0 -200 0 -200 54 0 54 0 4 126 c3 124 3 126 31 150 18 15 41
24 63 24 l34 0 0 55 c0 60 -3 62 -66 44z"/>
<path d="M4414 1059 c-17 -5 -37 -16 -44 -24 -17 -21 -30 -19 -30 5 0 17 -7
20 -50 20 l-50 0 0 -200 0 -200 55 0 55 0 0 118 c0 98 3 122 20 149 33 55 129
54 150 -2 6 -15 10 -80 10 -146 l0 -119 61 0 62 0 -5 149 c-6 174 -16 202 -88
239 -46 23 -93 27 -146 11z"/>
<path d="M5415 1059 c-88 -33 -135 -102 -135 -199 0 -67 14 -102 57 -141 48
-45 86 -59 163 -59 70 0 116 13 155 43 20 16 20 16 -11 47 -31 31 -32 32 -62
16 -64 -33 -156 -13 -180 38 l-12 26 155 0 155 0 0 38 c0 63 -41 136 -94 167
-52 31 -142 42 -191 24z m137 -99 c14 -11 28 -29 31 -40 5 -19 1 -20 -94 -20
-64 0 -99 4 -99 11 0 6 13 24 29 40 36 36 95 40 133 9z"/>
<path d="M5859 1056 c-94 -33 -139 -97 -139 -196 0 -67 14 -102 57 -141 47
-44 87 -59 158 -59 79 0 122 16 158 60 l28 33 -38 23 c-41 25 -63 30 -63 14 0
-5 -13 -16 -30 -25 -97 -50 -193 47 -146 147 29 61 111 78 163 34 l28 -24 37
19 c46 23 48 42 9 78 -51 48 -147 64 -222 37z"/>
<path d="M7402 913 c4 -164 14 -196 74 -234 45 -27 145 -26 190 2 l34 21 0
-21 c0 -19 6 -21 55 -21 l55 0 0 200 0 200 -54 0 -54 0 -3 -119 c-3 -102 -7
-124 -25 -147 -25 -34 -65 -46 -105 -32 -42 14 -49 41 -49 179 l0 119 -61 0
-61 0 4 -147z"/>
</g>
</svg>
